<svg xmlns="http://www.w3.org/2000/svg" xmlns:xlink="http://www.w3.org/1999/xlink" width="500" zoomAndPan="magnify" viewBox="0 0 375 374.999991" height="500" preserveAspectRatio="xMidYMid meet" version="1.0"><defs><clipPath id="a92028d4be"><path d="M 100 56 L 275.585938 56 L 275.585938 319.160156 L 100 319.160156 Z M 100 56 " clip-rule="nonzero"/></clipPath></defs><g clip-path="url(#a92028d4be)"><path fill="#15acb2" d="M 272.601562 242.289062 C 272.628906 242.289062 272.628906 242.289062 272.652344 242.289062 C 272.835938 242.289062 272.996094 242.207031 273.179688 242.183594 C 273.363281 242.15625 273.519531 242.128906 273.675781 242.050781 C 273.703125 242.050781 273.703125 242.050781 273.730469 242.050781 C 273.863281 242 273.941406 241.894531 274.046875 241.816406 C 274.203125 241.710938 274.386719 241.605469 274.519531 241.472656 C 274.648438 241.339844 274.703125 241.183594 274.804688 241.050781 C 274.886719 240.921875 274.992188 240.789062 275.070312 240.632812 C 275.148438 240.449219 275.148438 240.238281 275.199219 240.054688 C 275.226562 239.921875 275.277344 239.816406 275.277344 239.6875 C 275.277344 239.660156 275.277344 239.660156 275.277344 239.632812 C 275.277344 239.476562 275.226562 239.292969 275.175781 239.132812 C 275.148438 238.949219 275.121094 238.765625 275.042969 238.609375 C 275.042969 238.582031 275.042969 238.582031 275.042969 238.558594 L 240.625 165.386719 L 272.601562 165.386719 C 274.046875 165.386719 275.226562 164.207031 275.226562 162.761719 C 275.226562 161.316406 274.046875 160.132812 272.601562 160.132812 L 238.15625 160.132812 L 190.113281 57.800781 C 189.246094 55.964844 186.226562 55.964844 185.359375 57.800781 L 100.480469 238.53125 C 99.851562 239.84375 100.429688 241.421875 101.742188 242.023438 C 102.109375 242.183594 102.476562 242.261719 102.871094 242.261719 C 103.867188 242.261719 104.785156 241.710938 105.234375 240.761719 L 187.722656 65.105469 L 232.355469 160.132812 L 172.679688 160.132812 C 171.234375 160.132812 170.054688 161.316406 170.054688 162.761719 C 170.054688 164.207031 171.234375 165.386719 172.679688 165.386719 L 234.820312 165.386719 L 268.453125 237.007812 L 172.679688 237.007812 C 171.234375 237.007812 170.054688 238.1875 170.054688 239.632812 L 170.054688 316.535156 C 170.054688 317.976562 171.234375 319.160156 172.679688 319.160156 L 272.574219 319.160156 C 274.019531 319.160156 275.199219 317.976562 275.199219 316.535156 C 275.199219 315.089844 274.019531 313.90625 272.574219 313.90625 L 175.304688 313.90625 L 175.304688 242.289062 Z M 272.601562 242.289062 " fill-opacity="1" fill-rule="nonzero"/></g></svg>